<?xml version="1.0" encoding="us-ascii" standalone="no"?><svg xmlns="http://www.w3.org/2000/svg" xmlns:xlink="http://www.w3.org/1999/xlink" contentStyleType="text/css" height="425px" preserveAspectRatio="none" style="width:430px;height:425px;background:#FFFFFF;" version="1.1" viewBox="0 0 430 425" width="430px" zoomAndPan="magnify"><defs/><g><rect fill="#FFFFFF" height="243.9297" style="stroke:#181818;stroke-width:1.0;" width="10" x="17" y="91.2969"/><line style="stroke:#181818;stroke-width:0.5;stroke-dasharray:5.0,5.0;" x1="22" x2="22" y1="81.2969" y2="344.2266"/><line style="stroke:#181818;stroke-width:0.5;stroke-dasharray:5.0,5.0;" x1="155" x2="155" y1="81.2969" y2="344.2266"/><line style="stroke:#181818;stroke-width:0.5;stroke-dasharray:5.0,5.0;" x1="247" x2="247" y1="81.2969" y2="344.2266"/><text fill="#000000" font-family="sans-serif" font-size="14" lengthAdjust="spacing" textLength="28" x="5" y="77.9951">&#29992;&#25143;</text><ellipse cx="22" cy="13.5" fill="#E2E2F0" rx="8" ry="8" style="stroke:#181818;stroke-width:0.5;"/><path d="M22,21.5 L22,48.5 M9,29.5 L35,29.5 M22,48.5 L9,63.5 M22,48.5 L35,63.5 " fill="none" style="stroke:#181818;stroke-width:0.5;"/><text fill="#000000" font-family="sans-serif" font-size="14" lengthAdjust="spacing" textLength="28" x="5" y="356.2217">&#29992;&#25143;</text><ellipse cx="22" cy="368.0234" fill="#E2E2F0" rx="8" ry="8" style="stroke:#181818;stroke-width:0.5;"/><path d="M22,376.0234 L22,403.0234 M9,384.0234 L35,384.0234 M22,403.0234 L9,418.0234 M22,403.0234 L35,418.0234 " fill="none" style="stroke:#181818;stroke-width:0.5;"/><rect fill="#E2E2F0" height="30.2969" rx="2.5" ry="2.5" style="stroke:#181818;stroke-width:0.5;" width="56" x="127" y="50"/><text fill="#000000" font-family="sans-serif" font-size="14" lengthAdjust="spacing" textLength="42" x="134" y="69.9951">&#27983;&#35272;&#22120;</text><rect fill="#E2E2F0" height="30.2969" rx="2.5" ry="2.5" style="stroke:#181818;stroke-width:0.5;" width="56" x="127" y="343.2266"/><text fill="#000000" font-family="sans-serif" font-size="14" lengthAdjust="spacing" textLength="42" x="134" y="363.2217">&#27983;&#35272;&#22120;</text><rect fill="#FFA500" height="30.2969" rx="2.5" ry="2.5" style="stroke:#181818;stroke-width:0.5;" width="56" x="219" y="50"/><text fill="#000000" font-family="sans-serif" font-size="14" lengthAdjust="spacing" textLength="42" x="226" y="69.9951">&#26381;&#21153;&#31471;</text><rect fill="#FFA500" height="30.2969" rx="2.5" ry="2.5" style="stroke:#181818;stroke-width:0.5;" width="56" x="219" y="343.2266"/><text fill="#000000" font-family="sans-serif" font-size="14" lengthAdjust="spacing" textLength="42" x="226" y="363.2217">&#26381;&#21153;&#31471;</text><rect fill="#FFFFFF" height="243.9297" style="stroke:#181818;stroke-width:1.0;" width="10" x="17" y="91.2969"/><polygon fill="#181818" points="143,108.4297,153,112.4297,143,116.4297,147,112.4297" style="stroke:#181818;stroke-width:1.0;"/><line style="stroke:#181818;stroke-width:1.0;" x1="27" x2="149" y1="112.4297" y2="112.4297"/><text fill="#000000" font-family="sans-serif" font-size="13" font-weight="bold" lengthAdjust="spacing" textLength="9" x="34" y="107.3638">1</text><text fill="#000000" font-family="sans-serif" font-size="13" lengthAdjust="spacing" textLength="52" x="47" y="107.3638">&#21457;&#36215;&#23545;&#35805;</text><polygon fill="#181818" points="235,137.5625,245,141.5625,235,145.5625,239,141.5625" style="stroke:#181818;stroke-width:1.0;"/><line style="stroke:#181818;stroke-width:1.0;" x1="155" x2="241" y1="141.5625" y2="141.5625"/><text fill="#000000" font-family="sans-serif" font-size="13" font-weight="bold" lengthAdjust="spacing" textLength="9" x="162" y="136.4966">2</text><text fill="#000000" font-family="sans-serif" font-size="13" lengthAdjust="spacing" textLength="55" x="175" y="136.4966">newChat</text><line style="stroke:#181818;stroke-width:1.0;" x1="247" x2="289" y1="170.6953" y2="170.6953"/><line style="stroke:#181818;stroke-width:1.0;" x1="289" x2="289" y1="170.6953" y2="183.6953"/><line style="stroke:#181818;stroke-width:1.0;" x1="248" x2="289" y1="183.6953" y2="183.6953"/><polygon fill="#181818" points="258,179.6953,248,183.6953,258,187.6953,254,183.6953" style="stroke:#181818;stroke-width:1.0;"/><text fill="#000000" font-family="sans-serif" font-size="13" font-weight="bold" lengthAdjust="spacing" textLength="9" x="254" y="165.6294">3</text><text fill="#000000" font-family="sans-serif" font-size="13" lengthAdjust="spacing" textLength="104" x="267" y="165.6294">&#29983;&#25104;&#19968;&#20010;&#26032;&#30340;&#23545;&#35805;</text><line style="stroke:#181818;stroke-width:1.0;" x1="247" x2="289" y1="212.8281" y2="212.8281"/><line style="stroke:#181818;stroke-width:1.0;" x1="289" x2="289" y1="212.8281" y2="225.8281"/><line style="stroke:#181818;stroke-width:1.0;" x1="248" x2="289" y1="225.8281" y2="225.8281"/><polygon fill="#181818" points="258,221.8281,248,225.8281,258,229.8281,254,225.8281" style="stroke:#181818;stroke-width:1.0;"/><text fill="#000000" font-family="sans-serif" font-size="13" font-weight="bold" lengthAdjust="spacing" textLength="9" x="254" y="207.7622">4</text><text fill="#000000" font-family="sans-serif" font-size="13" lengthAdjust="spacing" textLength="156" x="267" y="207.7622">&#23545;&#35805;&#20449;&#24687;&#20445;&#23384;&#22312;&#23545;&#35805;&#35760;&#24518;&#20013;</text><polygon fill="#181818" points="166,250.9609,156,254.9609,166,258.9609,162,254.9609" style="stroke:#181818;stroke-width:1.0;"/><line style="stroke:#181818;stroke-width:1.0;" x1="160" x2="246" y1="254.9609" y2="254.9609"/><text fill="#000000" font-family="sans-serif" font-size="13" font-weight="bold" lengthAdjust="spacing" textLength="9" x="172" y="249.895">5</text><text fill="#000000" font-family="sans-serif" font-size="13" lengthAdjust="spacing" textLength="52" x="185" y="249.895">&#23545;&#35805;&#20449;&#24687;</text><line style="stroke:#181818;stroke-width:1.0;" x1="155" x2="197" y1="284.0938" y2="284.0938"/><line style="stroke:#181818;stroke-width:1.0;" x1="197" x2="197" y1="284.0938" y2="297.0938"/><line style="stroke:#181818;stroke-width:1.0;" x1="156" x2="197" y1="297.0938" y2="297.0938"/><polygon fill="#181818" points="166,293.0938,156,297.0938,166,301.0938,162,297.0938" style="stroke:#181818;stroke-width:1.0;"/><text fill="#000000" font-family="sans-serif" font-size="13" font-weight="bold" lengthAdjust="spacing" textLength="9" x="162" y="279.0278">6</text><text fill="#000000" font-family="sans-serif" font-size="13" lengthAdjust="spacing" textLength="65" x="175" y="279.0278">&#28210;&#26579;&#23545;&#35805;&#26694;</text><polygon fill="#181818" points="143,322.2266,153,326.2266,143,330.2266,147,326.2266" style="stroke:#181818;stroke-width:1.0;"/><line style="stroke:#181818;stroke-width:1.0;" x1="27" x2="149" y1="326.2266" y2="326.2266"/><text fill="#000000" font-family="sans-serif" font-size="13" font-weight="bold" lengthAdjust="spacing" textLength="9" x="34" y="321.1606">7</text><text fill="#000000" font-family="sans-serif" font-size="13" lengthAdjust="spacing" textLength="91" x="47" y="321.1606">&#29992;&#25143;&#24320;&#22987;&#38382;&#38382;&#39064;</text></g></svg>